<mxfile host="app.diagrams.net" agent="Mozilla/5.0 (Macintosh; Intel Mac OS X 10_15_7) AppleWebKit/537.36 (KHTML, like Gecko) Chrome/135.0.0.0 Safari/537.36" version="26.2.13" pages="2">
  <diagram name="diagram" id="6ukGMBzUbouidtLYa3Sw">
    <mxGraphModel dx="3383" dy="3013" grid="1" gridSize="10" guides="1" tooltips="1" connect="1" arrows="1" fold="1" page="1" pageScale="1" pageWidth="827" pageHeight="1169" background="none" math="0" shadow="0">
      <root>
        <mxCell id="0" />
        <mxCell id="1" parent="0" />
        <mxCell id="Ca-HSD1cl0IYTj0no1Oc-30" style="rounded=0;orthogonalLoop=1;jettySize=auto;html=1;endSize=6;strokeWidth=1;endArrow=block;endFill=0;dashed=1;edgeStyle=orthogonalEdgeStyle;elbow=vertical;entryX=1;entryY=0.75;entryDx=0;entryDy=0;exitX=0.5;exitY=0;exitDx=0;exitDy=0;" parent="1" edge="1" target="Ca-HSD1cl0IYTj0no1Oc-8" source="0mk0P4tBSOYKn8ylM31y-5">
          <mxGeometry relative="1" as="geometry">
            <mxPoint x="940" y="370" as="sourcePoint" />
            <mxPoint x="760" y="320" as="targetPoint" />
          </mxGeometry>
        </mxCell>
        <mxCell id="0mk0P4tBSOYKn8ylM31y-1" style="rounded=0;orthogonalLoop=1;jettySize=auto;html=1;exitX=1;exitY=0.5;exitDx=0;exitDy=0;entryX=0;entryY=0.5;entryDx=0;entryDy=0;endSize=6;strokeWidth=1;endArrow=open;endFill=0;dashed=1;labelBackgroundColor=none;" edge="1" parent="1" source="Ca-HSD1cl0IYTj0no1Oc-15" target="Ca-HSD1cl0IYTj0no1Oc-8">
          <mxGeometry relative="1" as="geometry">
            <mxPoint x="620" y="424.9999999999999" as="sourcePoint" />
            <mxPoint x="460" y="424.9999999999999" as="targetPoint" />
          </mxGeometry>
        </mxCell>
        <mxCell id="s0Vr-8dEI3E9MCX5EE9J-1" style="edgeStyle=orthogonalEdgeStyle;rounded=0;orthogonalLoop=1;jettySize=auto;html=1;exitX=0.5;exitY=0;exitDx=0;exitDy=0;labelBackgroundColor=none;" edge="1" parent="1" source="Ca-HSD1cl0IYTj0no1Oc-9">
          <mxGeometry relative="1" as="geometry">
            <mxPoint x="-20" y="-65" as="targetPoint" />
          </mxGeometry>
        </mxCell>
        <mxCell id="s0Vr-8dEI3E9MCX5EE9J-3" value="&lt;font style=&quot;font-size: 14px;&quot;&gt;Expose functionalities&lt;/font&gt;&lt;div&gt;&lt;font style=&quot;font-size: 14px;&quot;&gt;to higher layers&lt;/font&gt;&lt;/div&gt;" style="edgeLabel;html=1;align=center;verticalAlign=middle;resizable=0;points=[];labelBackgroundColor=default;" vertex="1" connectable="0" parent="s0Vr-8dEI3E9MCX5EE9J-1">
          <mxGeometry x="0.2003" y="1" relative="1" as="geometry">
            <mxPoint x="1" y="4" as="offset" />
          </mxGeometry>
        </mxCell>
        <mxCell id="Ca-HSD1cl0IYTj0no1Oc-9" value="&lt;p style=&quot;margin:0px;margin-top:4px;text-align:center;&quot;&gt;&amp;lt;&amp;lt;Interface&amp;gt;&amp;gt;&lt;br&gt;&lt;b&gt;Repository&lt;/b&gt;&amp;lt;T&amp;gt;&lt;/p&gt;&lt;hr size=&quot;1&quot; style=&quot;border-style:solid;&quot;&gt;&lt;p style=&quot;margin:0px;margin-left:4px;&quot;&gt;+ create(T) : void&lt;br&gt;&lt;/p&gt;&lt;p style=&quot;margin:0px;margin-left:4px;&quot;&gt;+ read() : ArrayList&amp;lt;T&amp;gt;&lt;/p&gt;&lt;p style=&quot;margin:0px;margin-left:4px;&quot;&gt;+ update(T) : void&lt;/p&gt;&lt;p style=&quot;margin:0px;margin-left:4px;&quot;&gt;+ delete(T) : void&lt;/p&gt;" style="verticalAlign=top;align=left;overflow=fill;html=1;whiteSpace=wrap;labelBackgroundColor=none;" parent="1" vertex="1">
          <mxGeometry x="-240" y="75" width="440" height="110" as="geometry" />
        </mxCell>
        <mxCell id="Ca-HSD1cl0IYTj0no1Oc-15" value="&lt;p style=&quot;margin:0px;margin-top:4px;text-align:center;&quot;&gt;&lt;i&gt;&lt;b&gt;IdentifiableRepository&lt;/b&gt;&amp;lt;T extends Identifiable&amp;gt;&lt;/i&gt;&lt;/p&gt;&lt;hr size=&quot;1&quot; style=&quot;border-style:solid;&quot;&gt;&lt;p style=&quot;margin:0px;margin-left:4px;&quot;&gt;&lt;br&gt;&lt;/p&gt;&lt;hr size=&quot;1&quot; style=&quot;border-style:solid;&quot;&gt;&lt;p style=&quot;margin: 0px 0px 0px 4px;&quot;&gt;+ create(T) : void&lt;br&gt;&lt;/p&gt;&lt;p style=&quot;margin: 0px 0px 0px 4px;&quot;&gt;&lt;span style=&quot;color: light-dark(rgb(0, 0, 0), rgb(255, 255, 255));&quot;&gt;+ update(T) : void&lt;/span&gt;&lt;/p&gt;&lt;p style=&quot;margin: 0px 0px 0px 4px;&quot;&gt;+ delete(T) : void&lt;/p&gt;&lt;p style=&quot;margin: 0px 0px 0px 4px;&quot;&gt;#&amp;nbsp;&lt;i&gt;write&lt;/i&gt;(ArrayList&amp;lt;T&amp;gt;) : void&lt;/p&gt;" style="verticalAlign=top;align=left;overflow=fill;html=1;whiteSpace=wrap;labelBackgroundColor=none;" parent="1" vertex="1">
          <mxGeometry x="-440" y="265" width="840" height="130" as="geometry" />
        </mxCell>
        <mxCell id="Ca-HSD1cl0IYTj0no1Oc-22" value="&lt;p style=&quot;margin:0px;margin-top:4px;text-align:center;&quot;&gt;&amp;lt;&amp;lt;Singleton&amp;gt;&amp;gt;&lt;/p&gt;&lt;p style=&quot;margin:0px;margin-top:4px;text-align:center;&quot;&gt;&lt;b&gt;AccountsRepository&lt;/b&gt;&lt;/p&gt;&lt;hr size=&quot;1&quot; style=&quot;border-style:solid;&quot;&gt;&lt;p style=&quot;margin:0px;margin-left:4px;&quot;&gt;&lt;span style=&quot;color: light-dark(rgb(0, 0, 0), rgb(255, 255, 255));&quot;&gt;- RAW_ACC_SRC : DataSource&amp;lt;RawAccount&amp;gt;&lt;/span&gt;&lt;/p&gt;&lt;p style=&quot;margin:0px;margin-left:4px;&quot;&gt;- RAW_TRA_SRC&amp;nbsp;:&amp;nbsp;DataSource&amp;lt;RawTransaction&amp;gt;&lt;/p&gt;&lt;hr size=&quot;1&quot; style=&quot;border-style:solid;&quot;&gt;&lt;p style=&quot;margin: 0px 0px 0px 4px;&quot;&gt;&lt;span style=&quot;color: light-dark(rgb(0, 0, 0), rgb(255, 255, 255));&quot;&gt;+ read() : ArrayList&amp;lt;Account&amp;gt;&lt;/span&gt;&lt;/p&gt;&lt;p style=&quot;margin: 0px 0px 0px 4px;&quot;&gt;~ readMap() :&amp;nbsp;HashMap&amp;lt;UUID, Account&amp;gt;&lt;/p&gt;&lt;p style=&quot;margin: 0px 0px 0px 4px;&quot;&gt;# write(&lt;span style=&quot;color: light-dark(rgb(0, 0, 0), rgb(255, 255, 255));&quot;&gt;ArrayList&amp;lt;Account&amp;gt;&lt;/span&gt;&lt;span style=&quot;color: light-dark(rgb(0, 0, 0), rgb(255, 255, 255));&quot;&gt;) : void&lt;/span&gt;&lt;/p&gt;&lt;div&gt;&lt;br&gt;&lt;/div&gt;" style="verticalAlign=top;align=left;overflow=fill;html=1;whiteSpace=wrap;labelBackgroundColor=none;" parent="1" vertex="1">
          <mxGeometry x="-520" y="465" width="280" height="140" as="geometry" />
        </mxCell>
        <mxCell id="Ca-HSD1cl0IYTj0no1Oc-27" value="&lt;p style=&quot;margin:0px;margin-top:4px;text-align:center;&quot;&gt;&amp;lt;&amp;lt;Singleton&amp;gt;&amp;gt;&lt;/p&gt;&lt;p style=&quot;margin:0px;margin-top:4px;text-align:center;&quot;&gt;&lt;b&gt;CategoriesRepository&lt;/b&gt;&lt;/p&gt;&lt;hr size=&quot;1&quot; style=&quot;border-style:solid;&quot;&gt;&lt;p style=&quot;margin:0px;margin-left:4px;&quot;&gt;&lt;span style=&quot;color: light-dark(rgb(0, 0, 0), rgb(255, 255, 255));&quot;&gt;-&amp;nbsp;&lt;/span&gt;RAW_CATEG_SRC&lt;span style=&quot;color: light-dark(rgb(0, 0, 0), rgb(255, 255, 255));&quot;&gt;&amp;nbsp;: DataSource&amp;lt;RawCategory&amp;gt;&lt;/span&gt;&lt;/p&gt;&lt;hr size=&quot;1&quot; style=&quot;border-style:solid;&quot;&gt;&lt;p style=&quot;margin: 0px 0px 0px 4px;&quot;&gt;&lt;span style=&quot;color: light-dark(rgb(0, 0, 0), rgb(255, 255, 255));&quot;&gt;+ read() : ArrayList&amp;lt;Category&amp;gt;&lt;/span&gt;&lt;/p&gt;&lt;p style=&quot;margin: 0px 0px 0px 4px;&quot;&gt;~ readMap() :&amp;nbsp;HashMap&amp;lt;UUID, Category&amp;gt;&lt;/p&gt;&lt;p style=&quot;margin: 0px 0px 0px 4px;&quot;&gt;# write(&lt;span style=&quot;color: light-dark(rgb(0, 0, 0), rgb(255, 255, 255));&quot;&gt;ArrayList&amp;lt;Category&amp;gt;&lt;/span&gt;&lt;span style=&quot;color: light-dark(rgb(0, 0, 0), rgb(255, 255, 255));&quot;&gt;) : void&lt;/span&gt;&lt;/p&gt;&lt;div&gt;&lt;br&gt;&lt;/div&gt;" style="verticalAlign=top;align=left;overflow=fill;html=1;whiteSpace=wrap;labelBackgroundColor=none;" parent="1" vertex="1">
          <mxGeometry x="200" y="470" width="280" height="130" as="geometry" />
        </mxCell>
        <mxCell id="Ca-HSD1cl0IYTj0no1Oc-28" value="&lt;p style=&quot;margin:0px;margin-top:4px;text-align:center;&quot;&gt;&amp;lt;&amp;lt;Singleton&amp;gt;&amp;gt;&lt;/p&gt;&lt;p style=&quot;margin:0px;margin-top:4px;text-align:center;&quot;&gt;&lt;b&gt;TransactionsRepository&lt;/b&gt;&lt;/p&gt;&lt;hr size=&quot;1&quot; style=&quot;border-style:solid;&quot;&gt;&lt;p style=&quot;margin:0px;margin-left:4px;&quot;&gt;- RAW_TRA_SRC&amp;nbsp;:&amp;nbsp;DataSource&amp;lt;RawTransaction&amp;gt;&lt;/p&gt;&lt;hr size=&quot;1&quot; style=&quot;border-style:solid;&quot;&gt;&lt;p style=&quot;margin: 0px 0px 0px 4px;&quot;&gt;&lt;span style=&quot;color: light-dark(rgb(0, 0, 0), rgb(255, 255, 255));&quot;&gt;+ read() : ArrayList&amp;lt;Transaction&amp;gt;&lt;/span&gt;&lt;/p&gt;&lt;p style=&quot;margin: 0px 0px 0px 4px;&quot;&gt;~ readMap() :&amp;nbsp;HashMap&amp;lt;UUID, Transaction&amp;gt;&lt;/p&gt;&lt;p style=&quot;margin: 0px 0px 0px 4px;&quot;&gt;# write(&lt;span style=&quot;color: light-dark(rgb(0, 0, 0), rgb(255, 255, 255));&quot;&gt;ArrayList&amp;lt;&lt;/span&gt;Transaction&lt;span style=&quot;color: light-dark(rgb(0, 0, 0), rgb(255, 255, 255));&quot;&gt;&amp;gt;&lt;/span&gt;&lt;span style=&quot;color: light-dark(rgb(0, 0, 0), rgb(255, 255, 255));&quot;&gt;) : void&lt;/span&gt;&lt;/p&gt;&lt;div&gt;&lt;br&gt;&lt;/div&gt;" style="verticalAlign=top;align=left;overflow=fill;html=1;whiteSpace=wrap;labelBackgroundColor=none;" parent="1" vertex="1">
          <mxGeometry x="-160" y="470" width="280" height="130" as="geometry" />
        </mxCell>
        <mxCell id="Ca-HSD1cl0IYTj0no1Oc-32" style="rounded=0;orthogonalLoop=1;jettySize=auto;html=1;exitX=0.5;exitY=0;exitDx=0;exitDy=0;entryX=0.5;entryY=1;entryDx=0;entryDy=0;endSize=6;strokeWidth=1;endArrow=block;endFill=0;dashed=1;labelBackgroundColor=none;" parent="1" source="Ca-HSD1cl0IYTj0no1Oc-15" target="Ca-HSD1cl0IYTj0no1Oc-9" edge="1">
          <mxGeometry relative="1" as="geometry">
            <mxPoint x="-340" y="234.9999999999999" as="sourcePoint" />
            <mxPoint x="-500" y="234.9999999999999" as="targetPoint" />
          </mxGeometry>
        </mxCell>
        <mxCell id="Ca-HSD1cl0IYTj0no1Oc-33" style="rounded=0;orthogonalLoop=1;jettySize=auto;html=1;exitX=0.5;exitY=0;exitDx=0;exitDy=0;endSize=6;strokeWidth=1;endArrow=block;endFill=0;entryX=0.072;entryY=0.996;entryDx=0;entryDy=0;entryPerimeter=0;labelBackgroundColor=none;" parent="1" source="Ca-HSD1cl0IYTj0no1Oc-22" target="Ca-HSD1cl0IYTj0no1Oc-15" edge="1">
          <mxGeometry relative="1" as="geometry">
            <mxPoint x="-510" y="454.9999999999999" as="sourcePoint" />
            <mxPoint x="-370" y="425" as="targetPoint" />
          </mxGeometry>
        </mxCell>
        <mxCell id="Ca-HSD1cl0IYTj0no1Oc-34" style="rounded=0;orthogonalLoop=1;jettySize=auto;html=1;exitX=0.5;exitY=0;exitDx=0;exitDy=0;endSize=6;strokeWidth=1;endArrow=block;endFill=0;entryX=0.5;entryY=1;entryDx=0;entryDy=0;labelBackgroundColor=none;" parent="1" source="Ca-HSD1cl0IYTj0no1Oc-28" target="Ca-HSD1cl0IYTj0no1Oc-15" edge="1">
          <mxGeometry relative="1" as="geometry">
            <mxPoint x="-190" y="466" as="sourcePoint" />
            <mxPoint x="-190" y="395" as="targetPoint" />
          </mxGeometry>
        </mxCell>
        <mxCell id="Ca-HSD1cl0IYTj0no1Oc-35" style="rounded=0;orthogonalLoop=1;jettySize=auto;html=1;exitX=0.5;exitY=0;exitDx=0;exitDy=0;endSize=6;strokeWidth=1;endArrow=block;endFill=0;entryX=0.929;entryY=1;entryDx=0;entryDy=0;entryPerimeter=0;labelBackgroundColor=none;" parent="1" source="Ca-HSD1cl0IYTj0no1Oc-27" target="Ca-HSD1cl0IYTj0no1Oc-15" edge="1">
          <mxGeometry relative="1" as="geometry">
            <mxPoint x="170" y="485" as="sourcePoint" />
            <mxPoint x="340" y="415" as="targetPoint" />
          </mxGeometry>
        </mxCell>
        <mxCell id="Ca-HSD1cl0IYTj0no1Oc-36" style="rounded=0;orthogonalLoop=1;jettySize=auto;html=1;exitX=0;exitY=0.5;exitDx=0;exitDy=0;entryX=1;entryY=0.5;entryDx=0;entryDy=0;endSize=6;strokeWidth=1;endArrow=open;endFill=0;dashed=1;labelBackgroundColor=none;" parent="1" source="Ca-HSD1cl0IYTj0no1Oc-28" target="Ca-HSD1cl0IYTj0no1Oc-22" edge="1">
          <mxGeometry relative="1" as="geometry">
            <mxPoint x="-120" y="644.9999999999999" as="sourcePoint" />
            <mxPoint x="-280" y="644.9999999999999" as="targetPoint" />
          </mxGeometry>
        </mxCell>
        <mxCell id="Ca-HSD1cl0IYTj0no1Oc-37" style="rounded=0;orthogonalLoop=1;jettySize=auto;html=1;exitX=1;exitY=0.5;exitDx=0;exitDy=0;entryX=0;entryY=0.5;entryDx=0;entryDy=0;endSize=6;strokeWidth=1;endArrow=open;endFill=0;dashed=1;labelBackgroundColor=none;" parent="1" source="Ca-HSD1cl0IYTj0no1Oc-28" target="Ca-HSD1cl0IYTj0no1Oc-27" edge="1">
          <mxGeometry relative="1" as="geometry">
            <mxPoint x="40" y="639.9999999999999" as="sourcePoint" />
            <mxPoint x="-120" y="639.9999999999999" as="targetPoint" />
          </mxGeometry>
        </mxCell>
        <mxCell id="Ca-HSD1cl0IYTj0no1Oc-38" style="rounded=0;orthogonalLoop=1;jettySize=auto;html=1;exitX=0.5;exitY=1;exitDx=0;exitDy=0;entryX=0.5;entryY=0;entryDx=0;entryDy=0;endSize=6;strokeWidth=1;endArrow=open;endFill=0;dashed=1;labelBackgroundColor=none;" parent="1" source="Ca-HSD1cl0IYTj0no1Oc-22" target="Ca-HSD1cl0IYTj0no1Oc-2" edge="1">
          <mxGeometry relative="1" as="geometry">
            <mxPoint x="-413" y="639.9999999999999" as="sourcePoint" />
            <mxPoint x="-573" y="639.9999999999999" as="targetPoint" />
          </mxGeometry>
        </mxCell>
        <mxCell id="Ca-HSD1cl0IYTj0no1Oc-39" style="rounded=0;orthogonalLoop=1;jettySize=auto;html=1;exitX=1;exitY=1;exitDx=0;exitDy=0;entryX=0;entryY=0;entryDx=0;entryDy=0;endSize=6;strokeWidth=1;endArrow=open;endFill=0;dashed=1;labelBackgroundColor=none;" parent="1" source="Ca-HSD1cl0IYTj0no1Oc-22" target="Ca-HSD1cl0IYTj0no1Oc-19" edge="1">
          <mxGeometry relative="1" as="geometry">
            <mxPoint x="-220" y="630" as="sourcePoint" />
            <mxPoint x="-140" y="710" as="targetPoint" />
          </mxGeometry>
        </mxCell>
        <mxCell id="Ca-HSD1cl0IYTj0no1Oc-40" style="rounded=0;orthogonalLoop=1;jettySize=auto;html=1;exitX=0.5;exitY=1;exitDx=0;exitDy=0;entryX=0.5;entryY=0;entryDx=0;entryDy=0;endSize=6;strokeWidth=1;endArrow=open;endFill=0;dashed=1;labelBackgroundColor=none;" parent="1" source="Ca-HSD1cl0IYTj0no1Oc-28" target="Ca-HSD1cl0IYTj0no1Oc-19" edge="1">
          <mxGeometry relative="1" as="geometry">
            <mxPoint x="50" y="639.9999999999999" as="sourcePoint" />
            <mxPoint x="-110" y="639.9999999999999" as="targetPoint" />
          </mxGeometry>
        </mxCell>
        <mxCell id="Ca-HSD1cl0IYTj0no1Oc-41" style="rounded=0;orthogonalLoop=1;jettySize=auto;html=1;exitX=0.5;exitY=1;exitDx=0;exitDy=0;entryX=0.5;entryY=0;entryDx=0;entryDy=0;endSize=6;strokeWidth=1;endArrow=open;endFill=0;dashed=1;labelBackgroundColor=none;" parent="1" source="Ca-HSD1cl0IYTj0no1Oc-27" target="Ca-HSD1cl0IYTj0no1Oc-21" edge="1">
          <mxGeometry relative="1" as="geometry">
            <mxPoint x="-10" y="615" as="sourcePoint" />
            <mxPoint x="-10" y="700" as="targetPoint" />
          </mxGeometry>
        </mxCell>
        <mxCell id="Ca-HSD1cl0IYTj0no1Oc-64" value="Data Layer" style="text;html=1;align=center;verticalAlign=middle;resizable=0;points=[];autosize=1;strokeColor=none;fillColor=none;fontSize=30;labelBackgroundColor=none;" parent="1" vertex="1">
          <mxGeometry x="-680" y="75" width="170" height="50" as="geometry" />
        </mxCell>
        <mxCell id="Ca-HSD1cl0IYTj0no1Oc-8" value="&lt;p style=&quot;margin:0px;margin-top:4px;text-align:center;&quot;&gt;&amp;lt;&amp;lt;Interface&amp;gt;&amp;gt;&lt;br&gt;&lt;b&gt;Identifiable&lt;/b&gt;&lt;/p&gt;&lt;hr size=&quot;1&quot; style=&quot;border-style:solid;&quot;&gt;&lt;p style=&quot;margin:0px;margin-left:4px;&quot;&gt;+ getID() : UUID&lt;br&gt;&lt;/p&gt;" style="verticalAlign=top;align=left;overflow=fill;html=1;whiteSpace=wrap;labelBackgroundColor=none;" parent="1" vertex="1">
          <mxGeometry x="520" y="295" width="160" height="70" as="geometry" />
        </mxCell>
        <mxCell id="0mk0P4tBSOYKn8ylM31y-3" value="" style="endArrow=none;html=1;strokeWidth=2;rounded=0;dashed=1;dashPattern=1 1;" edge="1" parent="1">
          <mxGeometry width="50" height="50" relative="1" as="geometry">
            <mxPoint x="-760" y="35" as="sourcePoint" />
            <mxPoint x="1920" y="40" as="targetPoint" />
          </mxGeometry>
        </mxCell>
        <mxCell id="Ca-HSD1cl0IYTj0no1Oc-71" value="" style="group;labelBackgroundColor=none;" parent="1" vertex="1" connectable="0">
          <mxGeometry x="480.00315789473666" y="1299.9990322580643" width="240" height="63.87096774193548" as="geometry" />
        </mxCell>
        <mxCell id="Ca-HSD1cl0IYTj0no1Oc-65" value="" style="rounded=0;whiteSpace=wrap;html=1;labelBackgroundColor=none;" parent="Ca-HSD1cl0IYTj0no1Oc-71" vertex="1">
          <mxGeometry width="240" height="63.87096774193548" as="geometry" />
        </mxCell>
        <mxCell id="Ca-HSD1cl0IYTj0no1Oc-66" value="Internal Storage" style="text;html=1;align=center;verticalAlign=middle;resizable=0;points=[];autosize=1;strokeColor=none;fillColor=none;fontSize=30;labelBackgroundColor=none;" parent="Ca-HSD1cl0IYTj0no1Oc-71" vertex="1">
          <mxGeometry y="5.32258064516129" width="240" height="50" as="geometry" />
        </mxCell>
        <mxCell id="Ca-HSD1cl0IYTj0no1Oc-2" value="&lt;p style=&quot;margin:0px;margin-top:4px;text-align:center;&quot;&gt;&lt;b&gt;RawAccountsDataSource&lt;/b&gt;&lt;/p&gt;&lt;hr size=&quot;1&quot; style=&quot;border-style:solid;&quot;&gt;&lt;p style=&quot;margin:0px;margin-left:4px;&quot;&gt;- &lt;u&gt;FILE_NAME&lt;/u&gt;&amp;nbsp;: String&lt;/p&gt;&lt;hr size=&quot;1&quot; style=&quot;border-style:solid;&quot;&gt;&lt;p style=&quot;margin: 0px 0px 0px 4px;&quot;&gt;#&lt;span style=&quot;color: light-dark(rgb(0, 0, 0), rgb(255, 255, 255));&quot;&gt;&amp;nbsp;&lt;/span&gt;&lt;span style=&quot;color: light-dark(rgb(0, 0, 0), rgb(255, 255, 255));&quot;&gt;serialize(RawAccount) : String&lt;/span&gt;&lt;/p&gt;&lt;p style=&quot;margin: 0px 0px 0px 4px;&quot;&gt;&lt;span style=&quot;color: light-dark(rgb(0, 0, 0), rgb(255, 255, 255));&quot;&gt;#&amp;nbsp;parse(String) :&amp;nbsp;&lt;/span&gt;&lt;span style=&quot;color: light-dark(rgb(0, 0, 0), rgb(255, 255, 255));&quot;&gt;RawAccount&lt;/span&gt;&lt;/p&gt;" style="verticalAlign=top;align=left;overflow=fill;html=1;whiteSpace=wrap;labelBackgroundColor=none;" parent="1" vertex="1">
          <mxGeometry x="-480" y="720" width="200" height="100" as="geometry" />
        </mxCell>
        <mxCell id="Ca-HSD1cl0IYTj0no1Oc-72" style="edgeStyle=orthogonalEdgeStyle;rounded=0;orthogonalLoop=1;jettySize=auto;html=1;exitX=0.5;exitY=1;exitDx=0;exitDy=0;entryX=0.5;entryY=0;entryDx=0;entryDy=0;labelBackgroundColor=none;" parent="1" source="Ca-HSD1cl0IYTj0no1Oc-7" target="Ca-HSD1cl0IYTj0no1Oc-65" edge="1">
          <mxGeometry relative="1" as="geometry">
            <mxPoint x="600" y="1350" as="targetPoint" />
          </mxGeometry>
        </mxCell>
        <mxCell id="Ca-HSD1cl0IYTj0no1Oc-76" value="&lt;font style=&quot;font-size: 14px;&quot;&gt;Directly access&lt;/font&gt;&lt;div&gt;&lt;font style=&quot;font-size: 14px;&quot;&gt;internal files&lt;/font&gt;&lt;/div&gt;" style="edgeLabel;html=1;align=center;verticalAlign=middle;resizable=0;points=[];labelBackgroundColor=default;" parent="Ca-HSD1cl0IYTj0no1Oc-72" vertex="1" connectable="0">
          <mxGeometry x="-0.0252" y="-1" relative="1" as="geometry">
            <mxPoint as="offset" />
          </mxGeometry>
        </mxCell>
        <mxCell id="Ca-HSD1cl0IYTj0no1Oc-6" value="&lt;p style=&quot;margin:0px;margin-top:4px;text-align:center;&quot;&gt;&lt;b style=&quot;color: light-dark(rgb(0, 0, 0), rgb(255, 255, 255));&quot;&gt;&lt;i&gt;LocalFileDataSource&lt;/i&gt;&lt;/b&gt;&lt;span style=&quot;color: light-dark(rgb(0, 0, 0), rgb(255, 255, 255));&quot;&gt;&lt;i&gt;&amp;lt;T&amp;gt;&lt;/i&gt;&lt;/span&gt;&lt;/p&gt;&lt;hr size=&quot;1&quot; style=&quot;border-style:solid;&quot;&gt;&lt;p style=&quot;margin:0px;margin-left:4px;&quot;&gt;- FILE :&amp;nbsp;&lt;span style=&quot;color: light-dark(rgb(0, 0, 0), rgb(255, 255, 255));&quot;&gt;TextFileHandler&lt;/span&gt;&lt;/p&gt;&lt;hr size=&quot;1&quot; style=&quot;border-style:solid;&quot;&gt;&lt;p style=&quot;margin:0px;margin-left:4px;&quot;&gt;+ load() : ArrayList&amp;lt;T&amp;gt;&lt;br&gt;+ save(ArrayList&amp;lt;T&amp;gt;) : void&lt;/p&gt;&lt;p style=&quot;margin:0px;margin-left:4px;&quot;&gt;#&lt;span style=&quot;color: light-dark(rgb(0, 0, 0), rgb(255, 255, 255));&quot;&gt;&amp;nbsp;&lt;/span&gt;&lt;span style=&quot;color: light-dark(rgb(0, 0, 0), rgb(255, 255, 255));&quot;&gt;&lt;i&gt;serialize&lt;/i&gt;(T) : String&lt;/span&gt;&lt;/p&gt;&lt;p style=&quot;margin:0px;margin-left:4px;&quot;&gt;&lt;span style=&quot;color: light-dark(rgb(0, 0, 0), rgb(255, 255, 255));&quot;&gt;# &lt;i&gt;parse&lt;/i&gt;(String) : T&lt;/span&gt;&lt;/p&gt;" style="verticalAlign=top;align=left;overflow=fill;html=1;whiteSpace=wrap;labelBackgroundColor=none;" parent="1" vertex="1">
          <mxGeometry x="-440" y="900" width="840" height="130" as="geometry" />
        </mxCell>
        <mxCell id="Ca-HSD1cl0IYTj0no1Oc-7" value="&lt;p style=&quot;margin:0px;margin-top:4px;text-align:center;&quot;&gt;&lt;b&gt;TextFileHandler&lt;/b&gt;&lt;/p&gt;&lt;hr size=&quot;1&quot; style=&quot;border-style:solid;&quot;&gt;&lt;p style=&quot;margin:0px;margin-left:4px;&quot;&gt;- FILE_HANDLE : File&lt;/p&gt;&lt;hr size=&quot;1&quot; style=&quot;border-style:solid;&quot;&gt;&lt;p style=&quot;margin:0px;margin-left:4px;&quot;&gt;+ readLines() : ArrayList&amp;lt;String&amp;gt;&lt;/p&gt;&lt;p style=&quot;margin:0px;margin-left:4px;&quot;&gt;+ writeLines(&lt;span style=&quot;color: light-dark(rgb(0, 0, 0), rgb(255, 255, 255));&quot;&gt;ArrayList&amp;lt;String&amp;gt;&lt;/span&gt;&lt;span style=&quot;color: light-dark(rgb(0, 0, 0), rgb(255, 255, 255));&quot;&gt;) : void&lt;/span&gt;&lt;/p&gt;" style="verticalAlign=top;align=left;overflow=fill;html=1;whiteSpace=wrap;labelBackgroundColor=none;" parent="1" vertex="1">
          <mxGeometry x="480" y="915" width="240" height="100" as="geometry" />
        </mxCell>
        <mxCell id="Ca-HSD1cl0IYTj0no1Oc-11" value="&lt;p style=&quot;margin:0px;margin-top:4px;text-align:center;&quot;&gt;&amp;lt;&amp;lt;Interface&amp;gt;&amp;gt;&lt;br&gt;&lt;b&gt;DataSource&lt;/b&gt;&amp;lt;T&amp;gt;&lt;/p&gt;&lt;hr size=&quot;1&quot; style=&quot;border-style:solid;&quot;&gt;&lt;p style=&quot;margin:0px;margin-left:4px;&quot;&gt;&lt;span style=&quot;color: light-dark(rgb(0, 0, 0), rgb(255, 255, 255));&quot;&gt;+ load() : ArrayList&amp;lt;T&amp;gt;&lt;/span&gt;&lt;/p&gt;&lt;p style=&quot;margin:0px;margin-left:4px;&quot;&gt;+ save(&lt;span style=&quot;color: light-dark(rgb(0, 0, 0), rgb(255, 255, 255));&quot;&gt;ArrayList&amp;lt;T&amp;gt;&lt;/span&gt;&lt;span style=&quot;color: light-dark(rgb(0, 0, 0), rgb(255, 255, 255));&quot;&gt;) : void&lt;/span&gt;&lt;/p&gt;&lt;p style=&quot;margin:0px;margin-left:4px;&quot;&gt;&lt;br&gt;&lt;/p&gt;" style="verticalAlign=top;align=left;overflow=fill;html=1;whiteSpace=wrap;labelBackgroundColor=none;" parent="1" vertex="1">
          <mxGeometry x="-240" y="1110" width="440" height="90" as="geometry" />
        </mxCell>
        <mxCell id="Ca-HSD1cl0IYTj0no1Oc-19" value="&lt;p style=&quot;margin:0px;margin-top:4px;text-align:center;&quot;&gt;&lt;b&gt;RawTransactionsDataSource&lt;/b&gt;&lt;/p&gt;&lt;hr size=&quot;1&quot; style=&quot;border-style:solid;&quot;&gt;&lt;p style=&quot;margin:0px;margin-left:4px;&quot;&gt;- &lt;u&gt;FILE_NAME&lt;/u&gt;&amp;nbsp;: String&lt;/p&gt;&lt;hr size=&quot;1&quot; style=&quot;border-style:solid;&quot;&gt;&lt;p style=&quot;margin: 0px 0px 0px 4px;&quot;&gt;#&lt;span style=&quot;color: light-dark(rgb(0, 0, 0), rgb(255, 255, 255));&quot;&gt;&amp;nbsp;&lt;/span&gt;&lt;span style=&quot;color: light-dark(rgb(0, 0, 0), rgb(255, 255, 255));&quot;&gt;serialize(RawTransaction) : String&lt;/span&gt;&lt;/p&gt;&lt;p style=&quot;margin: 0px 0px 0px 4px;&quot;&gt;&lt;span style=&quot;color: light-dark(rgb(0, 0, 0), rgb(255, 255, 255));&quot;&gt;#&amp;nbsp;parse(String) :&amp;nbsp;&lt;/span&gt;&lt;span style=&quot;color: light-dark(rgb(0, 0, 0), rgb(255, 255, 255));&quot;&gt;RawTransaction&lt;/span&gt;&lt;/p&gt;" style="verticalAlign=top;align=left;overflow=fill;html=1;whiteSpace=wrap;labelBackgroundColor=none;" parent="1" vertex="1">
          <mxGeometry x="-120" y="720" width="200" height="100" as="geometry" />
        </mxCell>
        <mxCell id="Ca-HSD1cl0IYTj0no1Oc-21" value="&lt;p style=&quot;margin:0px;margin-top:4px;text-align:center;&quot;&gt;&lt;b&gt;RawCategoriesDataSource&lt;/b&gt;&lt;/p&gt;&lt;hr size=&quot;1&quot; style=&quot;border-style:solid;&quot;&gt;&lt;p style=&quot;margin:0px;margin-left:4px;&quot;&gt;- &lt;u&gt;FILE_NAME&lt;/u&gt;&amp;nbsp;: String&lt;/p&gt;&lt;hr size=&quot;1&quot; style=&quot;border-style:solid;&quot;&gt;&lt;p style=&quot;margin: 0px 0px 0px 4px;&quot;&gt;#&lt;span style=&quot;color: light-dark(rgb(0, 0, 0), rgb(255, 255, 255));&quot;&gt;&amp;nbsp;&lt;/span&gt;&lt;span style=&quot;color: light-dark(rgb(0, 0, 0), rgb(255, 255, 255));&quot;&gt;serialize(RawCategory) : String&lt;/span&gt;&lt;/p&gt;&lt;p style=&quot;margin: 0px 0px 0px 4px;&quot;&gt;&lt;span style=&quot;color: light-dark(rgb(0, 0, 0), rgb(255, 255, 255));&quot;&gt;#&amp;nbsp;parse(String) :&amp;nbsp;&lt;/span&gt;&lt;span style=&quot;color: light-dark(rgb(0, 0, 0), rgb(255, 255, 255));&quot;&gt;RawCategory&lt;/span&gt;&lt;/p&gt;" style="verticalAlign=top;align=left;overflow=fill;html=1;whiteSpace=wrap;labelBackgroundColor=none;" parent="1" vertex="1">
          <mxGeometry x="240" y="720" width="200" height="100" as="geometry" />
        </mxCell>
        <mxCell id="Ca-HSD1cl0IYTj0no1Oc-26" value="&lt;p style=&quot;margin:0px;margin-top:4px;text-align:center;&quot;&gt;&lt;b&gt;App&lt;/b&gt;&lt;/p&gt;&lt;hr size=&quot;1&quot; style=&quot;border-style:solid;&quot;&gt;&lt;p style=&quot;margin:0px;margin-left:4px;&quot;&gt;- &lt;u&gt;context&lt;/u&gt;&amp;nbsp;: Context&lt;/p&gt;&lt;hr size=&quot;1&quot; style=&quot;border-style:solid;&quot;&gt;&lt;p style=&quot;margin:0px;margin-left:4px;&quot;&gt;+ onCreate() : void&lt;/p&gt;&lt;p style=&quot;margin:0px;margin-left:4px;&quot;&gt;+ &lt;u&gt;getContext&lt;/u&gt;() : Context&lt;/p&gt;" style="verticalAlign=top;align=left;overflow=fill;html=1;whiteSpace=wrap;labelBackgroundColor=none;" parent="1" vertex="1">
          <mxGeometry x="-720" y="920" width="160" height="90" as="geometry" />
        </mxCell>
        <mxCell id="Ca-HSD1cl0IYTj0no1Oc-42" style="rounded=0;orthogonalLoop=1;jettySize=auto;html=1;exitX=0.5;exitY=1;exitDx=0;exitDy=0;entryX=0.5;entryY=0;entryDx=0;entryDy=0;endSize=6;strokeWidth=1;endArrow=block;endFill=0;labelBackgroundColor=none;" parent="1" source="Ca-HSD1cl0IYTj0no1Oc-19" target="Ca-HSD1cl0IYTj0no1Oc-6" edge="1">
          <mxGeometry relative="1" as="geometry">
            <mxPoint x="-80" y="869.9999999999999" as="sourcePoint" />
            <mxPoint x="-240" y="869.9999999999999" as="targetPoint" />
          </mxGeometry>
        </mxCell>
        <mxCell id="Ca-HSD1cl0IYTj0no1Oc-43" style="rounded=0;orthogonalLoop=1;jettySize=auto;html=1;exitX=0.5;exitY=1;exitDx=0;exitDy=0;entryX=0.5;entryY=0;entryDx=0;entryDy=0;endSize=6;strokeWidth=1;endArrow=block;endFill=0;dashed=1;labelBackgroundColor=none;" parent="1" source="Ca-HSD1cl0IYTj0no1Oc-6" target="Ca-HSD1cl0IYTj0no1Oc-11" edge="1">
          <mxGeometry relative="1" as="geometry">
            <mxPoint x="-413" y="929.9999999999999" as="sourcePoint" />
            <mxPoint x="-573" y="929.9999999999999" as="targetPoint" />
          </mxGeometry>
        </mxCell>
        <mxCell id="Ca-HSD1cl0IYTj0no1Oc-44" style="rounded=0;orthogonalLoop=1;jettySize=auto;html=1;exitX=0.5;exitY=1;exitDx=0;exitDy=0;endSize=6;strokeWidth=1;endArrow=block;endFill=0;entryX=0.929;entryY=0;entryDx=0;entryDy=0;entryPerimeter=0;labelBackgroundColor=none;" parent="1" source="Ca-HSD1cl0IYTj0no1Oc-21" target="Ca-HSD1cl0IYTj0no1Oc-6" edge="1">
          <mxGeometry relative="1" as="geometry">
            <mxPoint x="-10" y="830" as="sourcePoint" />
            <mxPoint x="320" y="870" as="targetPoint" />
          </mxGeometry>
        </mxCell>
        <mxCell id="Ca-HSD1cl0IYTj0no1Oc-45" style="rounded=0;orthogonalLoop=1;jettySize=auto;html=1;exitX=0.5;exitY=1;exitDx=0;exitDy=0;endSize=6;strokeWidth=1;endArrow=block;endFill=0;entryX=0.071;entryY=0;entryDx=0;entryDy=0;entryPerimeter=0;labelBackgroundColor=none;" parent="1" source="Ca-HSD1cl0IYTj0no1Oc-2" target="Ca-HSD1cl0IYTj0no1Oc-6" edge="1">
          <mxGeometry relative="1" as="geometry">
            <mxPoint x="-390" y="820" as="sourcePoint" />
            <mxPoint x="-390" y="900" as="targetPoint" />
          </mxGeometry>
        </mxCell>
        <mxCell id="Ca-HSD1cl0IYTj0no1Oc-46" style="rounded=0;orthogonalLoop=1;jettySize=auto;html=1;entryX=0;entryY=0.5;entryDx=0;entryDy=0;endSize=6;strokeWidth=1;endArrow=open;endFill=0;dashed=1;exitX=1;exitY=0.5;exitDx=0;exitDy=0;labelBackgroundColor=none;" parent="1" source="Ca-HSD1cl0IYTj0no1Oc-6" target="Ca-HSD1cl0IYTj0no1Oc-7" edge="1">
          <mxGeometry relative="1" as="geometry">
            <mxPoint x="400" y="1279" as="sourcePoint" />
            <mxPoint x="480" y="1120" as="targetPoint" />
          </mxGeometry>
        </mxCell>
        <mxCell id="Ca-HSD1cl0IYTj0no1Oc-52" style="rounded=0;orthogonalLoop=1;jettySize=auto;html=1;exitX=0;exitY=0.5;exitDx=0;exitDy=0;entryX=1;entryY=0.5;entryDx=0;entryDy=0;endSize=6;strokeWidth=1;endArrow=open;endFill=0;dashed=1;labelBackgroundColor=none;" parent="1" source="Ca-HSD1cl0IYTj0no1Oc-6" target="Ca-HSD1cl0IYTj0no1Oc-26" edge="1">
          <mxGeometry relative="1" as="geometry">
            <mxPoint x="-360" y="1060" as="sourcePoint" />
            <mxPoint x="-520" y="1060" as="targetPoint" />
          </mxGeometry>
        </mxCell>
        <mxCell id="0mk0P4tBSOYKn8ylM31y-11" value="" style="endArrow=none;dashed=1;html=1;dashPattern=1 1;strokeWidth=2;rounded=0;" edge="1" parent="1">
          <mxGeometry width="50" height="50" relative="1" as="geometry">
            <mxPoint x="-760" y="1240" as="sourcePoint" />
            <mxPoint x="1960" y="1240" as="targetPoint" />
          </mxGeometry>
        </mxCell>
        <mxCell id="0mk0P4tBSOYKn8ylM31y-13" style="rounded=0;orthogonalLoop=1;jettySize=auto;html=1;endSize=10;strokeWidth=1;endArrow=diamondThin;endFill=0;edgeStyle=orthogonalEdgeStyle;exitX=0.25;exitY=0;exitDx=0;exitDy=0;entryX=0.85;entryY=0;entryDx=0;entryDy=0;entryPerimeter=0;" edge="1" parent="1" source="0mk0P4tBSOYKn8ylM31y-9" target="Ca-HSD1cl0IYTj0no1Oc-21">
          <mxGeometry relative="1" as="geometry">
            <mxPoint x="1170" y="700" as="sourcePoint" />
            <mxPoint x="410" y="710" as="targetPoint" />
            <Array as="points">
              <mxPoint x="1630" y="700" />
              <mxPoint x="410" y="700" />
            </Array>
          </mxGeometry>
        </mxCell>
        <mxCell id="0mk0P4tBSOYKn8ylM31y-17" style="rounded=0;orthogonalLoop=1;jettySize=auto;html=1;endSize=10;strokeWidth=1;endArrow=diamondThin;endFill=0;edgeStyle=orthogonalEdgeStyle;exitX=0.25;exitY=0;exitDx=0;exitDy=0;entryX=0.85;entryY=0;entryDx=0;entryDy=0;entryPerimeter=0;" edge="1" parent="1" source="0mk0P4tBSOYKn8ylM31y-10" target="Ca-HSD1cl0IYTj0no1Oc-19">
          <mxGeometry relative="1" as="geometry">
            <mxPoint x="1350" y="710" as="sourcePoint" />
            <mxPoint x="50" y="710" as="targetPoint" />
            <Array as="points">
              <mxPoint x="1230" y="690" />
              <mxPoint x="50" y="690" />
            </Array>
          </mxGeometry>
        </mxCell>
        <mxCell id="0mk0P4tBSOYKn8ylM31y-18" style="rounded=0;orthogonalLoop=1;jettySize=auto;html=1;endSize=10;strokeWidth=1;endArrow=diamondThin;endFill=0;edgeStyle=orthogonalEdgeStyle;exitX=0.25;exitY=0;exitDx=0;exitDy=0;entryX=0.85;entryY=0;entryDx=0;entryDy=0;entryPerimeter=0;" edge="1" parent="1" source="0mk0P4tBSOYKn8ylM31y-8" target="Ca-HSD1cl0IYTj0no1Oc-2">
          <mxGeometry relative="1" as="geometry">
            <mxPoint x="950" y="710" as="sourcePoint" />
            <mxPoint x="-310" y="710" as="targetPoint" />
            <Array as="points">
              <mxPoint x="870" y="680" />
              <mxPoint x="-310" y="680" />
            </Array>
          </mxGeometry>
        </mxCell>
        <mxCell id="0mk0P4tBSOYKn8ylM31y-19" style="rounded=0;orthogonalLoop=1;jettySize=auto;html=1;exitX=0.25;exitY=1;exitDx=0;exitDy=0;endSize=10;strokeWidth=1;endArrow=diamondThin;endFill=0;edgeStyle=orthogonalEdgeStyle;entryX=0.75;entryY=1;entryDx=0;entryDy=0;" edge="1" parent="1" source="0mk0P4tBSOYKn8ylM31y-6" target="Ca-HSD1cl0IYTj0no1Oc-27">
          <mxGeometry relative="1" as="geometry">
            <mxPoint x="1710" y="639.9999999999999" as="sourcePoint" />
            <mxPoint x="1550" y="640" as="targetPoint" />
            <Array as="points">
              <mxPoint x="1630" y="620" />
              <mxPoint x="410" y="620" />
            </Array>
          </mxGeometry>
        </mxCell>
        <mxCell id="0mk0P4tBSOYKn8ylM31y-20" style="rounded=0;orthogonalLoop=1;jettySize=auto;html=1;endSize=10;strokeWidth=1;endArrow=diamondThin;endFill=0;edgeStyle=orthogonalEdgeStyle;entryX=0.75;entryY=1;entryDx=0;entryDy=0;exitX=0.25;exitY=1;exitDx=0;exitDy=0;" edge="1" parent="1" source="0mk0P4tBSOYKn8ylM31y-7" target="Ca-HSD1cl0IYTj0no1Oc-28">
          <mxGeometry relative="1" as="geometry">
            <mxPoint x="1240" y="650" as="sourcePoint" />
            <mxPoint x="10" y="630" as="targetPoint" />
            <Array as="points">
              <mxPoint x="1230" y="630" />
              <mxPoint x="50" y="630" />
            </Array>
          </mxGeometry>
        </mxCell>
        <mxCell id="0mk0P4tBSOYKn8ylM31y-21" style="rounded=0;orthogonalLoop=1;jettySize=auto;html=1;exitX=0.25;exitY=1;exitDx=0;exitDy=0;endSize=10;strokeWidth=1;endArrow=diamondThin;endFill=0;edgeStyle=orthogonalEdgeStyle;entryX=0.75;entryY=1;entryDx=0;entryDy=0;" edge="1" parent="1" source="0mk0P4tBSOYKn8ylM31y-5" target="Ca-HSD1cl0IYTj0no1Oc-22">
          <mxGeometry relative="1" as="geometry">
            <mxPoint x="910" y="610" as="sourcePoint" />
            <mxPoint x="-350" y="620" as="targetPoint" />
            <Array as="points">
              <mxPoint x="870" y="640" />
              <mxPoint x="-310" y="640" />
            </Array>
          </mxGeometry>
        </mxCell>
        <mxCell id="0mk0P4tBSOYKn8ylM31y-5" value="&lt;p style=&quot;margin:0px;margin-top:4px;text-align:center;&quot;&gt;&lt;b&gt;Account&lt;/b&gt;&lt;/p&gt;&lt;hr size=&quot;1&quot; style=&quot;border-style:solid;&quot;&gt;&lt;p style=&quot;margin:0px;margin-left:4px;&quot;&gt;- ID : UUID&lt;/p&gt;&lt;p style=&quot;margin:0px;margin-left:4px;&quot;&gt;- name : String&lt;/p&gt;&lt;p style=&quot;margin:0px;margin-left:4px;&quot;&gt;- initialBalance : double&lt;/p&gt;&lt;p style=&quot;margin:0px;margin-left:4px;&quot;&gt;- balance : double&lt;/p&gt;&lt;hr size=&quot;1&quot; style=&quot;border-style:solid;&quot;&gt;&lt;p style=&quot;margin:0px;margin-left:4px;&quot;&gt;+ getID() : UUID&lt;/p&gt;&lt;p style=&quot;margin:0px;margin-left:4px;&quot;&gt;+ getName() : String&lt;/p&gt;&lt;p style=&quot;margin:0px;margin-left:4px;&quot;&gt;+ getInitialBalance() : double&lt;/p&gt;&lt;p style=&quot;margin:0px;margin-left:4px;&quot;&gt;+ getBalance() : double&lt;/p&gt;&lt;p style=&quot;margin:0px;margin-left:4px;&quot;&gt;+ setName(String) : void&lt;/p&gt;&lt;p style=&quot;margin:0px;margin-left:4px;&quot;&gt;+ setInitialBalance(double) : void&lt;/p&gt;&lt;p style=&quot;margin:0px;margin-left:4px;&quot;&gt;+ updateBalance(double) : void&lt;/p&gt;&lt;div&gt;&lt;br&gt;&lt;/div&gt;" style="verticalAlign=top;align=left;overflow=fill;html=1;whiteSpace=wrap;" vertex="1" parent="1">
          <mxGeometry x="760" y="390" width="280" height="210" as="geometry" />
        </mxCell>
        <mxCell id="0mk0P4tBSOYKn8ylM31y-6" value="&lt;p style=&quot;margin:0px;margin-top:4px;text-align:center;&quot;&gt;&lt;b&gt;Category&lt;/b&gt;&lt;/p&gt;&lt;hr size=&quot;1&quot; style=&quot;border-style:solid;&quot;&gt;&lt;p style=&quot;margin:0px;margin-left:4px;&quot;&gt;- ID : UUID&lt;/p&gt;&lt;p style=&quot;margin:0px;margin-left:4px;&quot;&gt;- name : String&lt;/p&gt;&lt;hr size=&quot;1&quot; style=&quot;border-style:solid;&quot;&gt;&lt;p style=&quot;margin:0px;margin-left:4px;&quot;&gt;+ getID() : UUID&lt;/p&gt;&lt;p style=&quot;margin:0px;margin-left:4px;&quot;&gt;+ getName() : String&lt;/p&gt;&lt;p style=&quot;margin:0px;margin-left:4px;&quot;&gt;+ setName(String) : void&lt;/p&gt;&lt;div&gt;&lt;br&gt;&lt;/div&gt;" style="verticalAlign=top;align=left;overflow=fill;html=1;whiteSpace=wrap;" vertex="1" parent="1">
          <mxGeometry x="1560" y="480" width="280" height="120" as="geometry" />
        </mxCell>
        <mxCell id="0mk0P4tBSOYKn8ylM31y-26" style="rounded=0;orthogonalLoop=1;jettySize=auto;html=1;exitX=0;exitY=0.5;exitDx=0;exitDy=0;entryX=1;entryY=0.5;entryDx=0;entryDy=0;" edge="1" parent="1" source="0mk0P4tBSOYKn8ylM31y-7" target="0mk0P4tBSOYKn8ylM31y-5">
          <mxGeometry relative="1" as="geometry" />
        </mxCell>
        <mxCell id="0mk0P4tBSOYKn8ylM31y-29" value="Has a" style="edgeLabel;html=1;align=center;verticalAlign=middle;resizable=0;points=[];" vertex="1" connectable="0" parent="0mk0P4tBSOYKn8ylM31y-26">
          <mxGeometry x="-0.1191" y="1" relative="1" as="geometry">
            <mxPoint as="offset" />
          </mxGeometry>
        </mxCell>
        <mxCell id="0mk0P4tBSOYKn8ylM31y-27" style="rounded=0;orthogonalLoop=1;jettySize=auto;html=1;exitX=1;exitY=0.5;exitDx=0;exitDy=0;entryX=0;entryY=0.5;entryDx=0;entryDy=0;" edge="1" parent="1" source="0mk0P4tBSOYKn8ylM31y-7" target="0mk0P4tBSOYKn8ylM31y-6">
          <mxGeometry relative="1" as="geometry" />
        </mxCell>
        <mxCell id="0mk0P4tBSOYKn8ylM31y-28" value="Has a" style="edgeLabel;html=1;align=center;verticalAlign=middle;resizable=0;points=[];" vertex="1" connectable="0" parent="0mk0P4tBSOYKn8ylM31y-27">
          <mxGeometry x="-0.0548" y="-1" relative="1" as="geometry">
            <mxPoint as="offset" />
          </mxGeometry>
        </mxCell>
        <mxCell id="0mk0P4tBSOYKn8ylM31y-7" value="&lt;p style=&quot;margin:0px;margin-top:4px;text-align:center;&quot;&gt;&lt;b&gt;Transaction&lt;/b&gt;&lt;/p&gt;&lt;hr size=&quot;1&quot; style=&quot;border-style:solid;&quot;&gt;&lt;p style=&quot;margin:0px;margin-left:4px;&quot;&gt;- ID : UUID&lt;/p&gt;&lt;p style=&quot;margin:0px;margin-left:4px;&quot;&gt;- timestamp : long&lt;/p&gt;&lt;p style=&quot;margin:0px;margin-left:4px;&quot;&gt;- amount : double&lt;/p&gt;&lt;p style=&quot;margin:0px;margin-left:4px;&quot;&gt;- note : String&lt;/p&gt;&lt;p style=&quot;margin:0px;margin-left:4px;&quot;&gt;- category : Category&lt;/p&gt;&lt;p style=&quot;margin:0px;margin-left:4px;&quot;&gt;- account : Account&lt;/p&gt;&lt;hr size=&quot;1&quot; style=&quot;border-style:solid;&quot;&gt;&lt;p style=&quot;margin:0px;margin-left:4px;&quot;&gt;+ getID() : UUID&lt;/p&gt;&lt;p style=&quot;margin:0px;margin-left:4px;&quot;&gt;+ getTimestamp() : long&lt;/p&gt;&lt;p style=&quot;margin:0px;margin-left:4px;&quot;&gt;+ getAmount() : double&lt;/p&gt;&lt;p style=&quot;margin:0px;margin-left:4px;&quot;&gt;+ getNote() : String&lt;/p&gt;&lt;p style=&quot;margin:0px;margin-left:4px;&quot;&gt;+ getCategory() : Category&lt;/p&gt;&lt;p style=&quot;margin:0px;margin-left:4px;&quot;&gt;+ getAccount() : Account&lt;/p&gt;&lt;p style=&quot;margin:0px;margin-left:4px;&quot;&gt;+ setTimestamp(long) : void&lt;/p&gt;&lt;p style=&quot;margin:0px;margin-left:4px;&quot;&gt;+ setAmount(double) : void&lt;/p&gt;&lt;p style=&quot;margin:0px;margin-left:4px;&quot;&gt;+ setNote(String) : void&lt;/p&gt;&lt;p style=&quot;margin:0px;margin-left:4px;&quot;&gt;+ setCategory(Category) : void&lt;/p&gt;&lt;p style=&quot;margin:0px;margin-left:4px;&quot;&gt;+ setAccount(Account) : void&lt;/p&gt;&lt;div&gt;&lt;br&gt;&lt;/div&gt;" style="verticalAlign=top;align=left;overflow=fill;html=1;whiteSpace=wrap;" vertex="1" parent="1">
          <mxGeometry x="1160" y="300" width="280" height="300" as="geometry" />
        </mxCell>
        <mxCell id="0mk0P4tBSOYKn8ylM31y-8" value="&lt;p style=&quot;margin: 4px 0px 0px; text-align: center;&quot;&gt;&lt;b&gt;RawAccount&lt;/b&gt;&lt;/p&gt;&lt;hr size=&quot;1&quot; style=&quot;border-style:solid;&quot;&gt;&lt;p style=&quot;margin:0px;margin-left:4px;&quot;&gt;- ID : UUID&lt;/p&gt;&lt;p style=&quot;margin:0px;margin-left:4px;&quot;&gt;- NAME : String&lt;/p&gt;&lt;p style=&quot;margin:0px;margin-left:4px;&quot;&gt;- INITIAL_BALANCE : double&lt;/p&gt;&lt;hr size=&quot;1&quot; style=&quot;border-style:solid;&quot;&gt;&lt;p style=&quot;margin:0px;margin-left:4px;&quot;&gt;+ &lt;u&gt;fromAccount&lt;/u&gt;(Account) : RawAccount&lt;/p&gt;&lt;p style=&quot;margin:0px;margin-left:4px;&quot;&gt;+ getID() : UUID&lt;/p&gt;&lt;p style=&quot;margin:0px;margin-left:4px;&quot;&gt;+ getNAME() : String&lt;/p&gt;&lt;p style=&quot;margin:0px;margin-left:4px;&quot;&gt;+ getINITIAL_BALANCE() : double&lt;/p&gt;&lt;div&gt;&lt;br&gt;&lt;/div&gt;" style="verticalAlign=top;align=left;overflow=fill;html=1;whiteSpace=wrap;" vertex="1" parent="1">
          <mxGeometry x="760" y="720" width="280" height="150" as="geometry" />
        </mxCell>
        <mxCell id="0mk0P4tBSOYKn8ylM31y-9" value="&lt;p style=&quot;margin:0px;margin-top:4px;text-align:center;&quot;&gt;&lt;b&gt;RawCategory&lt;/b&gt;&lt;/p&gt;&lt;hr size=&quot;1&quot; style=&quot;border-style:solid;&quot;&gt;&lt;p style=&quot;margin:0px;margin-left:4px;&quot;&gt;- ID : UUID&lt;/p&gt;&lt;p style=&quot;margin:0px;margin-left:4px;&quot;&gt;- NAME : String&lt;/p&gt;&lt;hr size=&quot;1&quot; style=&quot;border-style:solid;&quot;&gt;&lt;p style=&quot;margin:0px;margin-left:4px;&quot;&gt;+ &lt;u&gt;fromCategory&lt;/u&gt;(Category) : RawCategory&lt;/p&gt;&lt;p style=&quot;margin:0px;margin-left:4px;&quot;&gt;+ getID() : UUID&lt;/p&gt;&lt;p style=&quot;margin:0px;margin-left:4px;&quot;&gt;+ getNAME() : String&lt;/p&gt;&lt;div&gt;&lt;br&gt;&lt;/div&gt;" style="verticalAlign=top;align=left;overflow=fill;html=1;whiteSpace=wrap;" vertex="1" parent="1">
          <mxGeometry x="1560" y="720" width="280" height="120" as="geometry" />
        </mxCell>
        <mxCell id="0mk0P4tBSOYKn8ylM31y-10" value="&lt;p style=&quot;margin:0px;margin-top:4px;text-align:center;&quot;&gt;&lt;b&gt;RawTransaction&lt;/b&gt;&lt;/p&gt;&lt;hr size=&quot;1&quot; style=&quot;border-style:solid;&quot;&gt;&lt;p style=&quot;margin:0px;margin-left:4px;&quot;&gt;- ID : UUID&lt;/p&gt;&lt;p style=&quot;margin:0px;margin-left:4px;&quot;&gt;- TIMESTAMP : long&lt;/p&gt;&lt;p style=&quot;margin:0px;margin-left:4px;&quot;&gt;- AMOUNT : double&lt;/p&gt;&lt;p style=&quot;margin:0px;margin-left:4px;&quot;&gt;- NOTE : String&lt;/p&gt;&lt;p style=&quot;margin:0px;margin-left:4px;&quot;&gt;- CATEGORY_ID : UUID&lt;/p&gt;&lt;p style=&quot;margin:0px;margin-left:4px;&quot;&gt;- ACCOUNT_ID : UUID&lt;/p&gt;&lt;hr size=&quot;1&quot; style=&quot;border-style:solid;&quot;&gt;&lt;p style=&quot;margin:0px;margin-left:4px;&quot;&gt;+ &lt;u&gt;fromTransaction&lt;/u&gt;(Transaction) : RawTransaction&lt;/p&gt;&lt;p style=&quot;margin:0px;margin-left:4px;&quot;&gt;+ getID() : UUID&lt;/p&gt;&lt;p style=&quot;margin:0px;margin-left:4px;&quot;&gt;+ getTIMESTAMP() : long&lt;/p&gt;&lt;p style=&quot;margin:0px;margin-left:4px;&quot;&gt;+ getAMOUNT() : double&lt;/p&gt;&lt;p style=&quot;margin:0px;margin-left:4px;&quot;&gt;+ getNOTE() : String&lt;/p&gt;&lt;p style=&quot;margin:0px;margin-left:4px;&quot;&gt;+ getCATEGORY_ID() : UUID&lt;/p&gt;&lt;p style=&quot;margin:0px;margin-left:4px;&quot;&gt;+ getACCOUNT_ID() : UUID&lt;/p&gt;&lt;div&gt;&lt;br&gt;&lt;/div&gt;&lt;div&gt;&lt;br&gt;&lt;/div&gt;" style="verticalAlign=top;align=left;overflow=fill;html=1;whiteSpace=wrap;" vertex="1" parent="1">
          <mxGeometry x="1160" y="720" width="280" height="240" as="geometry" />
        </mxCell>
        <mxCell id="0mk0P4tBSOYKn8ylM31y-14" style="rounded=0;orthogonalLoop=1;jettySize=auto;html=1;exitX=0.5;exitY=0;exitDx=0;exitDy=0;entryX=0.5;entryY=1;entryDx=0;entryDy=0;endSize=6;strokeWidth=1;endArrow=open;endFill=0;dashed=1;" edge="1" parent="1" source="0mk0P4tBSOYKn8ylM31y-8" target="0mk0P4tBSOYKn8ylM31y-5">
          <mxGeometry relative="1" as="geometry">
            <mxPoint x="1000" y="659.9999999999999" as="sourcePoint" />
            <mxPoint x="840" y="659.9999999999999" as="targetPoint" />
          </mxGeometry>
        </mxCell>
        <mxCell id="0mk0P4tBSOYKn8ylM31y-15" style="rounded=0;orthogonalLoop=1;jettySize=auto;html=1;exitX=0.5;exitY=0;exitDx=0;exitDy=0;entryX=0.5;entryY=1;entryDx=0;entryDy=0;endSize=6;strokeWidth=1;endArrow=open;endFill=0;dashed=1;" edge="1" parent="1" source="0mk0P4tBSOYKn8ylM31y-9" target="0mk0P4tBSOYKn8ylM31y-6">
          <mxGeometry relative="1" as="geometry">
            <mxPoint x="1699.6" y="740" as="sourcePoint" />
            <mxPoint x="1699.6" y="620" as="targetPoint" />
          </mxGeometry>
        </mxCell>
        <mxCell id="0mk0P4tBSOYKn8ylM31y-16" style="rounded=0;orthogonalLoop=1;jettySize=auto;html=1;exitX=0.5;exitY=0;exitDx=0;exitDy=0;entryX=0.5;entryY=1;entryDx=0;entryDy=0;endSize=6;strokeWidth=1;endArrow=open;endFill=0;dashed=1;" edge="1" parent="1" source="0mk0P4tBSOYKn8ylM31y-10" target="0mk0P4tBSOYKn8ylM31y-7">
          <mxGeometry relative="1" as="geometry">
            <mxPoint x="1050" y="730" as="sourcePoint" />
            <mxPoint x="1050" y="610" as="targetPoint" />
          </mxGeometry>
        </mxCell>
        <mxCell id="0mk0P4tBSOYKn8ylM31y-24" style="rounded=0;orthogonalLoop=1;jettySize=auto;html=1;endSize=6;strokeWidth=1;endArrow=block;endFill=0;dashed=1;edgeStyle=orthogonalEdgeStyle;elbow=vertical;entryX=1;entryY=0.5;entryDx=0;entryDy=0;exitX=0.5;exitY=0;exitDx=0;exitDy=0;" edge="1" parent="1" source="0mk0P4tBSOYKn8ylM31y-7" target="Ca-HSD1cl0IYTj0no1Oc-8">
          <mxGeometry relative="1" as="geometry">
            <mxPoint x="1330" y="270" as="sourcePoint" />
            <mxPoint x="740" y="270" as="targetPoint" />
            <Array as="points">
              <mxPoint x="1300" y="280" />
              <mxPoint x="1080" y="280" />
              <mxPoint x="1080" y="330" />
            </Array>
          </mxGeometry>
        </mxCell>
        <mxCell id="0mk0P4tBSOYKn8ylM31y-25" style="rounded=0;orthogonalLoop=1;jettySize=auto;html=1;endSize=6;strokeWidth=1;endArrow=block;endFill=0;dashed=1;edgeStyle=orthogonalEdgeStyle;elbow=vertical;entryX=1;entryY=0.25;entryDx=0;entryDy=0;exitX=0.5;exitY=0;exitDx=0;exitDy=0;" edge="1" parent="1" source="0mk0P4tBSOYKn8ylM31y-6" target="Ca-HSD1cl0IYTj0no1Oc-8">
          <mxGeometry relative="1" as="geometry">
            <mxPoint x="1410" y="240" as="sourcePoint" />
            <mxPoint x="710" y="310" as="targetPoint" />
            <Array as="points">
              <mxPoint x="1700" y="440" />
              <mxPoint x="1520" y="440" />
              <mxPoint x="1520" y="260" />
              <mxPoint x="1060" y="260" />
              <mxPoint x="1060" y="312" />
            </Array>
          </mxGeometry>
        </mxCell>
      </root>
    </mxGraphModel>
  </diagram>
  <diagram id="n5rzTst2FWlbRoL0E_X_" name="base">
    <mxGraphModel dx="1438" dy="2207" grid="1" gridSize="10" guides="1" tooltips="1" connect="1" arrows="1" fold="1" page="1" pageScale="1" pageWidth="827" pageHeight="1169" math="0" shadow="0">
      <root>
        <mxCell id="0" />
        <mxCell id="1" parent="0" />
        <mxCell id="QPPNEMzCVld7rbJmaqNK-1" style="rounded=0;orthogonalLoop=1;jettySize=auto;html=1;exitX=0;exitY=0.5;exitDx=0;exitDy=0;entryX=1;entryY=0.5;entryDx=0;entryDy=0;endSize=6;strokeWidth=1;endArrow=block;endFill=0;" edge="1" parent="1">
          <mxGeometry relative="1" as="geometry">
            <mxPoint x="280" y="-1000.0000000000001" as="sourcePoint" />
            <mxPoint x="120" y="-1000.0000000000001" as="targetPoint" />
          </mxGeometry>
        </mxCell>
        <mxCell id="QPPNEMzCVld7rbJmaqNK-2" style="rounded=0;orthogonalLoop=1;jettySize=auto;html=1;exitX=0;exitY=0.5;exitDx=0;exitDy=0;entryX=1;entryY=0.5;entryDx=0;entryDy=0;endSize=6;strokeWidth=1;endArrow=open;endFill=0;dashed=1;" edge="1" parent="1">
          <mxGeometry relative="1" as="geometry">
            <mxPoint x="280" y="-960.0000000000001" as="sourcePoint" />
            <mxPoint x="120" y="-960.0000000000001" as="targetPoint" />
          </mxGeometry>
        </mxCell>
        <mxCell id="QPPNEMzCVld7rbJmaqNK-3" style="rounded=0;orthogonalLoop=1;jettySize=auto;html=1;exitX=0;exitY=0.5;exitDx=0;exitDy=0;endSize=10;strokeWidth=1;endArrow=diamondThin;endFill=0;" edge="1" parent="1">
          <mxGeometry relative="1" as="geometry">
            <mxPoint x="280" y="-1020.0000000000001" as="sourcePoint" />
            <mxPoint x="120" y="-1020" as="targetPoint" />
          </mxGeometry>
        </mxCell>
        <mxCell id="QPPNEMzCVld7rbJmaqNK-4" style="rounded=0;orthogonalLoop=1;jettySize=auto;html=1;exitX=0;exitY=0.5;exitDx=0;exitDy=0;entryX=1;entryY=0.5;entryDx=0;entryDy=0;endSize=6;strokeWidth=1;endArrow=block;endFill=0;dashed=1;" edge="1" parent="1">
          <mxGeometry relative="1" as="geometry">
            <mxPoint x="280" y="-980.0000000000001" as="sourcePoint" />
            <mxPoint x="120" y="-980.0000000000001" as="targetPoint" />
          </mxGeometry>
        </mxCell>
      </root>
    </mxGraphModel>
  </diagram>
</mxfile>
